<?xml version="1.0" encoding="utf-8"?>
<svg viewBox="98.3753 123.9668 228.0697 274.0856" width="228.0697" height="274.0856" xmlns="http://www.w3.org/2000/svg">
  <circle cx="205.654" cy="269.084" r="5" style="stroke-miterlimit: 2.9; stroke-dasharray: 1, 4; paint-order: stroke; stroke: rgb(68, 0, 255); stroke-width: 32.6532px;" transform="matrix(-0.9727450013160707, 1.0898020267486572, -1.1949269771575928, -1.066578984260559, 728.6528930664064, 294.91436767578125)" fill="none"/>
  <circle cx="205.654" cy="269.084" r="10" fill="none" style="stroke-miterlimit: 2.9; stroke-dasharray: 1, 4; paint-order: stroke; stroke: rgb(68, 0, 255); stroke-width: 11.8401px;" transform="matrix(-4.841925144195557, 5.424585819244385, -0.876345992088318, -0.7822169065475464, 1500.8343505859377, -626.638427734375)"/>
  <circle cx="205.654" cy="269.084" r="15" style="stroke-miterlimit: 2.9; stroke-dasharray: 1, 4; paint-order: stroke; stroke: rgb(68, 0, 255); stroke-width: 19.4342px;" transform="matrix(-0.9727450013160707, 1.0898020267486572, -2.7489778995513916, -2.453709125518799, 1119.918212890625, 654.1572265625)" fill="none"/>
  <circle cx="205.654" cy="269.084" r="20" fill="none" style="stroke-miterlimit: 2.9; stroke-dasharray: 1, 4; paint-order: stroke; stroke: rgb(68, 0, 255); stroke-width: 32.6532px;" transform="matrix(-0.9727450013160707, 1.0898020267486572, -1.1949269771575928, -1.066578984260559, 759.3862304687501, 286.876953125)"/>
  <circle cx="205.654" cy="269.084" r="25" fill="none" style="stroke-miterlimit: 2.9; stroke-dasharray: 1, 4; paint-order: stroke; stroke: rgb(68, 0, 255); stroke-width: 22.7729px;" transform="matrix(-1.8941979408264162, 2.1221389770507812, -1.1538450717926025, -1.0299090147018433, 903.8316650390626, 79.5411605834961)"/>
  <circle cx="205.654" cy="269.084" r="30.308" fill="none" style="stroke-miterlimit: 2.9; stroke-dasharray: 1, 4; paint-order: stroke; stroke: rgb(68, 0, 255); stroke-width: 32.6532px;" transform="matrix(-0.9727450013160707, 1.0898020267486572, -1.1949269771575928, -1.066578984260559, 685.6577758789064, 303.3853454589844)"/>
  <circle cx="205.654" cy="269.084" r="35" fill="none" style="stroke-miterlimit: 2.9; stroke-dasharray: 1, 4; paint-order: stroke; stroke: rgb(68, 0, 255); stroke-width: 30.4365px;" transform="matrix(1.0375139713287354, 0, 0, 2.248013973236084, -9.643953323364254, -365.8554992675781)"/>
  <circle cx="205.654" cy="269.084" r="40" fill="none" style="stroke-miterlimit: 2.9; stroke-dasharray: 1, 4; paint-order: stroke; stroke: rgb(68, 0, 255); stroke-width: 32.6532px;" transform="matrix(-0.9727450013160707, 1.0898020267486572, -1.1949269771575928, -1.066578984260559, 748.2833862304689, 374.67437744140625)"/>
  <circle cx="205.654" cy="269.084" r="45" fill="none" style="stroke-miterlimit: 2.9; stroke-dasharray: 1, 4; paint-order: stroke; stroke: rgb(68, 0, 255); stroke-width: 32.6532px;" transform="matrix(-0.9727450013160707, 1.0898020267486572, -1.1949269771575928, -1.066578984260559, 725.0586547851564, 301.70977783203125)"/>
  <circle cx="205.654" cy="269.084" r="50" fill="none" style="stroke-miterlimit: 2.9; stroke-dasharray: 1, 4; paint-order: stroke; stroke: rgb(68, 0, 255); stroke-width: 34.5833px;" transform="matrix(1.4280869960784912, -1.3761249780654907, 0, 1.261443018913269, -88.85047912597656, 199.4167022705078)"/>
</svg>